<?xml version="1.0" standalone="no"?><!DOCTYPE svg PUBLIC "-//W3C//DTD SVG 1.1//EN" "http://www.w3.org/Graphics/SVG/1.1/DTD/svg11.dtd"><svg t="1729129928768" class="icon" viewBox="0 0 1024 1024" version="1.1" xmlns="http://www.w3.org/2000/svg" p-id="44672" xmlns:xlink="http://www.w3.org/1999/xlink" width="200" height="200"><path d="M490.112 565.184l-375.168-196.48a39.68 39.68 0 0 1 0-67.392l375.232-196.48a41.088 41.088 0 0 1 43.712 0l375.168 196.48a39.68 39.68 0 0 1 0 67.392L533.888 565.12a41.088 41.088 0 0 1-43.776 0z" fill="#FF8C58" p-id="44673"></path><path d="M511.552 765.888c-12.8 0-25.6-3.392-36.864-10.112l-362.496-189.44a32 32 0 1 1 29.632-56.704l364.608 190.464 1.088 0.704c2.496 1.6 5.76 1.536 8.32 0l1.024-0.704 1.152-0.64 364.16-191.168a32 32 0 0 1 29.696 56.64l-363.136 190.72c-11.392 6.848-24.32 10.24-37.12 10.24z" fill="#FF8C58" p-id="44674"></path><path d="M511.552 960.32c-12.8 0-25.6-3.392-36.864-10.24l-362.496-189.312A32 32 0 1 1 141.824 704l364.608 190.528 1.088 0.64c2.496 1.6 5.76 1.6 8.32 0l1.024-0.64 1.152-0.64 364.16-191.232a32 32 0 0 1 29.696 56.704l-363.136 190.72c-11.392 6.784-24.32 10.24-37.12 10.24z" fill="#FF8C58" p-id="44675"></path></svg>